<?xml version="1.0" standalone="no"?>
<!DOCTYPE svg PUBLIC "-//W3C//DTD SVG 20010904//EN"
 "http://www.w3.org/TR/2001/REC-SVG-20010904/DTD/svg10.dtd">
<svg version="1.0" xmlns="http://www.w3.org/2000/svg"
 width="720.000000pt" height="720.000000pt" viewBox="0 0 720.000000 720.000000"
 preserveAspectRatio="xMidYMid meet">
<metadata>
Created by potrace 1.11, written by Peter Selinger 2001-2013
</metadata>
<g transform="translate(0.000000,720.000000) scale(0.100000,-0.100000)"
fill="#000000" stroke="none">
<path d="M2062 7183 c2 -5 9 -19 16 -33 6 -14 45 -108 86 -210 98 -246 184
-458 201 -495 7 -16 28 -66 45 -110 18 -44 37 -91 43 -105 6 -14 11 -27 12
-30 1 -3 7 -18 14 -35 7 -16 30 -75 52 -129 22 -54 47 -112 55 -128 8 -15 12
-28 10 -28 -3 0 6 -24 19 -52 12 -29 73 -177 135 -328 61 -151 136 -333 165
-405 50 -122 133 -327 261 -643 30 -75 60 -146 66 -156 6 -11 14 -31 18 -45 7
-20 175 -435 207 -509 4 -8 -12 -6 -48 9 -30 12 -67 26 -84 32 -16 5 -34 13
-40 17 -5 4 -21 11 -34 15 -13 4 -40 14 -60 23 -20 9 -38 16 -41 17 -3 1 -16
7 -30 12 -14 6 -65 28 -115 47 -49 20 -99 41 -110 46 -19 9 -77 32 -480 195
-104 42 -203 82 -220 89 -16 8 -100 42 -185 76 -85 34 -168 68 -185 75 -16 7
-66 27 -110 45 -44 17 -93 37 -110 45 -16 7 -115 47 -220 89 -204 82 -217 87
-255 104 -14 7 -115 48 -225 92 -110 44 -209 85 -220 90 -11 5 -94 39 -185 76
-91 37 -241 97 -334 135 -93 38 -171 69 -172 69 -1 0 229 -346 511 -770 l514
-770 -514 -770 c-439 -659 -534 -805 -491 -763 3 4 13 8 20 9 7 1 29 9 47 17
33 16 88 38 424 173 88 35 174 71 190 78 17 8 233 96 480 197 501 203 956 388
1115 453 58 24 164 67 235 95 72 29 139 57 150 61 31 14 131 55 282 115 76 31
147 60 158 65 11 5 61 25 110 45 50 20 99 40 110 45 67 31 127 50 122 38 -28
-67 -156 -380 -301 -738 -97 -239 -181 -444 -186 -455 -5 -11 -59 -144 -120
-295 -61 -151 -117 -288 -124 -305 -8 -16 -91 -221 -186 -455 -95 -234 -195
-479 -222 -545 -27 -66 -67 -165 -90 -220 -22 -55 -55 -136 -73 -180 -90 -217
-103 -250 -100 -254 2 -2 348 227 770 507 l765 511 228 -151 c124 -83 231
-155 237 -160 5 -4 222 -149 480 -320 259 -171 472 -315 473 -320 2 -4 8 -8
14 -8 6 0 26 -11 44 -25 18 -14 37 -25 43 -25 6 0 11 -5 11 -12 0 -6 3 -9 6
-5 3 3 -1 20 -10 39 -8 18 -54 130 -101 248 -48 118 -93 229 -100 245 -7 17
-22 55 -34 85 -12 30 -26 64 -31 75 -5 11 -35 83 -66 160 -88 218 -140 346
-164 400 -12 28 -23 57 -25 65 -2 8 -29 76 -60 150 -60 144 -176 426 -205 500
-10 25 -32 81 -50 125 -17 44 -38 94 -45 110 -8 17 -48 116 -90 220 -158 391
-186 461 -200 490 -8 17 -46 111 -86 210 -39 99 -80 200 -91 225 -38 86 -49
123 -35 117 18 -8 220 -91 462 -190 116 -47 262 -106 325 -132 264 -107 449
-183 680 -276 135 -55 254 -104 265 -109 11 -5 94 -39 185 -76 244 -98 383
-154 405 -164 11 -5 83 -35 160 -66 77 -31 287 -116 467 -190 180 -74 330
-134 333 -134 3 0 27 -10 53 -21 26 -12 60 -27 77 -35 16 -7 31 -11 33 -9 2 2
-226 348 -506 769 l-511 766 511 766 c280 421 508 767 507 768 -3 3 -102 -36
-219 -85 -14 -6 -43 -17 -65 -25 -22 -8 -53 -21 -70 -29 -53 -26 -772 -315
-783 -315 -7 0 -12 -4 -12 -8 0 -5 -6 -9 -12 -9 -7 -1 -107 -40 -223 -88 -115
-48 -230 -94 -255 -103 -25 -10 -48 -21 -51 -25 -3 -5 -8 -8 -10 -7 -5 2 -36
-8 -64 -20 -11 -5 -69 -29 -130 -54 -60 -24 -171 -69 -245 -99 -74 -30 -187
-76 -250 -101 -63 -26 -124 -51 -135 -56 -11 -5 -45 -19 -75 -31 -30 -12 -68
-27 -85 -34 -16 -7 -61 -26 -100 -41 -38 -15 -74 -31 -79 -35 -6 -5 -16 -9
-24 -9 -7 0 -32 -9 -55 -19 -37 -17 -434 -179 -496 -202 -17 -7 -22 -6 -18 3
3 7 49 119 101 248 53 129 103 249 111 267 8 17 15 35 15 40 0 6 6 23 14 39 8
16 44 103 81 194 37 91 71 174 75 185 18 42 363 890 541 1330 72 176 134 329
139 340 5 11 46 110 90 220 45 110 85 209 90 220 29 64 147 361 145 364 -2 1
-348 -227 -770 -507 l-765 -511 -228 152 c-125 83 -231 154 -237 159 -5 4
-221 148 -480 320 -258 172 -471 316 -473 320 -2 4 -9 8 -15 8 -7 0 -30 14
-51 30 -38 29 -61 38 -54 23z"/>
</g>
</svg>
